<svg width="319" height="477" viewBox="0 0 319 477" fill="none" xmlns="http://www.w3.org/2000/svg">
<g clip-path="url(#clip0_5_31)">
<path fill-rule="evenodd" clip-rule="evenodd" d="M145.607 231.646C177.879 200.898 168.032 162.868 138.803 116.786C109.574 70.7039 50.7373 54.3094 39.7608 64.7673C28.7843 75.2253 26.3514 149.996 55.58 196.078C84.8085 242.16 113.334 262.394 145.607 231.646Z" fill="url(#paint0_linear_5_31)"/>
<path fill-rule="evenodd" clip-rule="evenodd" d="M173.511 235.902C197.387 273.544 229.306 259.78 268.814 222.138C308.323 184.496 324.705 112.389 316.585 99.5867C308.464 86.7839 246.755 87.4258 207.246 125.068C167.737 162.71 149.636 198.259 173.511 235.902Z" fill="url(#paint1_linear_5_31)"/>
<path fill-rule="evenodd" clip-rule="evenodd" d="M160.457 215.193C200.102 220.061 215.692 183.436 222.961 124.234C230.23 65.0314 200.265 2.45858 186.781 0.802998C173.298 -0.852587 127.998 52.4788 120.729 111.681C113.46 170.883 120.813 210.325 160.457 215.193Z" fill="url(#paint2_linear_5_31)"/>
<path fill-rule="evenodd" clip-rule="evenodd" d="M150.473 477C233.592 477 301 452.855 301 343.355C301 233.855 233.592 144 150.473 144C67.3546 144 0 233.855 0 343.355C0 452.855 67.3546 477 150.473 477Z" fill="url(#paint3_linear_5_31)"/>
<path d="M226.5 321C238.374 321 248 316.523 248 311C248 305.477 238.374 301 226.5 301C214.626 301 205 305.477 205 311C205 316.523 214.626 321 226.5 321Z" fill="#EAADCC"/>
<path d="M67.2813 314.925C79.0669 316.373 89.1667 313.102 89.8398 307.62C90.5128 302.138 81.5043 296.522 69.7187 295.075C57.9331 293.627 47.8333 296.898 47.1603 302.38C46.4872 307.861 55.4957 313.478 67.2813 314.925Z" fill="#EAADCC"/>
<path d="M164.248 307.459C157.777 312.718 150.303 314.863 141.826 313.894C133.348 312.925 127.065 309.407 122.975 303.338" stroke="black" stroke-width="6" stroke-linecap="round" stroke-linejoin="round"/>
<path fill-rule="evenodd" clip-rule="evenodd" d="M80.9825 255.418C86.9164 255.211 92.3724 257.428 96.3966 261.18C100.421 264.933 103.014 270.22 103.221 276.154C103.428 282.088 101.211 287.544 97.458 291.568C93.7053 295.592 88.4172 298.184 82.4832 298.392C76.5497 298.599 71.0942 296.382 67.0703 292.629C63.0466 288.876 60.4543 283.589 60.247 277.654C60.0398 271.721 62.257 266.265 66.0093 262.241C69.7616 258.217 75.0491 255.625 80.9825 255.418Z" fill="black" stroke="#B95D41" stroke-width="6"/>
<path fill-rule="evenodd" clip-rule="evenodd" d="M82.1115 273.389C81.9766 269.526 78.7337 266.503 74.872 266.638C71.008 266.773 67.9851 270.015 68.12 273.878C68.2549 277.741 71.4966 280.764 75.3606 280.629C79.2223 280.493 82.2464 277.253 82.1115 273.389Z" fill="white"/>
<path fill-rule="evenodd" clip-rule="evenodd" d="M211.253 260.875C217.187 260.668 222.643 262.885 226.667 266.637C230.691 270.39 233.283 275.677 233.491 281.611C233.698 287.545 231.481 293.001 227.728 297.025C223.976 301.049 218.688 303.641 212.754 303.849C206.821 304.056 201.365 301.838 197.341 298.086C193.317 294.333 190.724 289.045 190.517 283.111C190.31 277.178 192.527 271.722 196.28 267.699C200.032 263.674 205.32 261.082 211.253 260.875Z" fill="black" stroke="#B95D41" stroke-width="6"/>
<path d="M100.223 276.259C100.579 286.471 92.5904 295.037 82.3785 295.393C72.1676 295.75 63.6018 287.762 63.2452 277.55C62.8886 267.339 70.8763 258.773 81.0872 258.416C91.2992 258.059 99.8661 266.047 100.223 276.259ZM106.219 276.049C105.747 262.526 94.4014 251.947 80.8778 252.42C67.3552 252.892 56.7766 264.236 57.2488 277.759C57.7211 291.283 69.065 301.862 82.5879 301.39C96.1117 300.918 106.691 289.573 106.219 276.049Z" fill="white" stroke="white" stroke-width="3"/>
<path d="M230.492 281.715C230.849 291.928 222.861 300.494 212.649 300.85C202.439 301.207 193.872 293.219 193.515 283.007C193.158 272.796 201.147 264.23 211.358 263.873C221.57 263.516 230.136 271.504 230.492 281.715ZM236.489 281.506C236.017 267.983 224.672 257.404 211.149 257.877C197.626 258.349 187.046 269.693 187.519 283.216C187.991 296.74 199.336 307.319 212.859 306.847C226.383 306.375 236.961 295.03 236.489 281.506Z" fill="white" stroke="white" stroke-width="3"/>
<path fill-rule="evenodd" clip-rule="evenodd" d="M212.381 278.846C212.246 274.983 209.004 271.96 205.141 272.095C201.278 272.23 198.255 275.472 198.39 279.335C198.525 283.198 201.767 286.221 205.63 286.086C209.493 285.951 212.516 282.71 212.381 278.846Z" fill="white"/>
<path d="M36.5 353.5L110.5 430.5" stroke="#ECB732" stroke-width="11" stroke-linecap="round"/>
<path d="M100.5 362.5L53.5 412.5" stroke="#ECB732" stroke-width="11" stroke-linecap="round"/>
<path d="M263.5 353.5L189.5 430.5" stroke="#ECB732" stroke-width="11" stroke-linecap="round"/>
<path d="M199.5 362.5L246.5 412.5" stroke="#ECB732" stroke-width="11" stroke-linecap="round"/>
<path d="M180.5 183.5L131.5 232.5" stroke="#FFC73B" stroke-width="11" stroke-linecap="round"/>
<path d="M170.5 232.5L121.5 183.5" stroke="#FFC73B" stroke-width="11" stroke-linecap="round"/>
</g>
<defs>
<linearGradient id="paint0_linear_5_31" x1="35.5202" y1="68.0389" x2="52.1009" y2="148.505" gradientUnits="userSpaceOnUse">
<stop stop-color="#52CE63"/>
<stop offset="1" stop-color="#51A256"/>
</linearGradient>
<linearGradient id="paint1_linear_5_31" x1="326.844" y1="112.664" x2="246.369" y2="129.226" gradientUnits="userSpaceOnUse">
<stop stop-color="#52CE63"/>
<stop offset="1" stop-color="#51A256"/>
</linearGradient>
<linearGradient id="paint2_linear_5_31" x1="186.238" y1="0.736293" x2="170.757" y2="126.822" gradientUnits="userSpaceOnUse">
<stop stop-color="#8AE99C"/>
<stop offset="1" stop-color="#52CE63"/>
</linearGradient>
<linearGradient id="paint3_linear_5_31" x1="154.647" y1="202.184" x2="129.659" y2="476.586" gradientUnits="userSpaceOnUse">
<stop stop-color="#FFE56C"/>
<stop offset="1" stop-color="#FFC63A"/>
</linearGradient>
<clipPath id="clip0_5_31">
<rect width="319" height="477" fill="white"/>
</clipPath>
</defs>
</svg>
